<mxfile host="app.diagrams.net" modified="2023-05-30T15:27:36.719Z" agent="Mozilla/5.0 (Windows NT 6.1; Win64; x64; rv:109.0) Gecko/20100101 Firefox/113.0" etag="Gx_E8MnxIlcNRrM3SgFI" version="21.3.5" type="github">
  <diagram id="kgpKYQtTHZ0yAKxKKP6v" name="Page-1">
    <mxGraphModel dx="954" dy="520" grid="1" gridSize="10" guides="1" tooltips="1" connect="1" arrows="1" fold="1" page="1" pageScale="1" pageWidth="850" pageHeight="1100" math="0" shadow="0">
      <root>
        <mxCell id="0" />
        <mxCell id="1" parent="0" />
        <mxCell id="xTaR6zK0MpJ8cmc5XaGn-8" value="" style="rounded=0;whiteSpace=wrap;html=1;strokeColor=#C73500;fontFamily=Architects Daughter;fontSize=20;fontColor=#000000;fillColor=#89727c;" parent="1" vertex="1">
          <mxGeometry x="50" y="330" width="680" height="550" as="geometry" />
        </mxCell>
        <mxCell id="xTaR6zK0MpJ8cmc5XaGn-10" value="" style="rounded=0;whiteSpace=wrap;html=1;strokeColor=#C73500;fontFamily=Architects Daughter;fontSize=20;fontColor=#000000;fillColor=#89624E;" parent="1" vertex="1">
          <mxGeometry x="90" y="400" width="600" height="370" as="geometry" />
        </mxCell>
        <mxCell id="xTaR6zK0MpJ8cmc5XaGn-9" value="" style="rounded=0;whiteSpace=wrap;html=1;strokeColor=#C73500;fontFamily=Architects Daughter;fontSize=20;fontColor=#000000;fillColor=#5F8989;" parent="1" vertex="1">
          <mxGeometry x="150" y="470" width="480" height="260" as="geometry" />
        </mxCell>
        <mxCell id="a6YS1Ys6OPTmTMVAg_gW-16" value="" style="outlineConnect=0;dashed=0;verticalLabelPosition=bottom;verticalAlign=top;align=center;html=1;shape=mxgraph.aws3.topic_2;fillColor=#60a917;labelBackgroundColor=none;strokeColor=#2D7600;fontColor=#ffffff;" parent="1" vertex="1">
          <mxGeometry x="230" y="550" width="150" height="123" as="geometry" />
        </mxCell>
        <mxCell id="a6YS1Ys6OPTmTMVAg_gW-17" value="" style="outlineConnect=0;dashed=0;verticalLabelPosition=bottom;verticalAlign=top;align=center;html=1;shape=mxgraph.aws3.topic_2;fillColor=#60a917;labelBackgroundColor=none;strokeColor=#2D7600;fontColor=#ffffff;" parent="1" vertex="1">
          <mxGeometry x="400" y="550" width="150" height="123" as="geometry" />
        </mxCell>
        <mxCell id="xTaR6zK0MpJ8cmc5XaGn-5" value="Topic 2" style="text;html=1;strokeColor=#FFFFFF;fillColor=none;align=center;verticalAlign=middle;whiteSpace=wrap;rounded=0;fontSize=20;fontFamily=Verdana;" parent="1" vertex="1">
          <mxGeometry x="430" y="550" width="90" height="30" as="geometry" />
        </mxCell>
        <mxCell id="xTaR6zK0MpJ8cmc5XaGn-6" value="Topic 1" style="text;html=1;strokeColor=#FFFFFF;fillColor=none;align=center;verticalAlign=middle;whiteSpace=wrap;rounded=0;fontSize=20;fontFamily=Verdana;" parent="1" vertex="1">
          <mxGeometry x="260" y="550" width="90" height="30" as="geometry" />
        </mxCell>
        <mxCell id="xTaR6zK0MpJ8cmc5XaGn-12" value="Cluster Kafka" style="text;html=1;strokeColor=none;fillColor=none;align=center;verticalAlign=middle;whiteSpace=wrap;rounded=0;fontSize=20;fontFamily=Verdana;" parent="1" vertex="1">
          <mxGeometry x="290" y="420" width="210" height="30" as="geometry" />
        </mxCell>
        <mxCell id="xTaR6zK0MpJ8cmc5XaGn-13" value="Broker" style="text;html=1;strokeColor=none;fillColor=none;align=center;verticalAlign=middle;whiteSpace=wrap;rounded=0;fontSize=20;fontFamily=Verdana;" parent="1" vertex="1">
          <mxGeometry x="345" y="490" width="90" height="30" as="geometry" />
        </mxCell>
        <mxCell id="xTaR6zK0MpJ8cmc5XaGn-14" value="&lt;div&gt;Ecosistema Kafka&lt;/div&gt;" style="text;html=1;strokeColor=none;fillColor=none;align=center;verticalAlign=middle;whiteSpace=wrap;rounded=0;fontSize=20;fontFamily=Verdana;" parent="1" vertex="1">
          <mxGeometry x="270" y="340" width="240" height="30" as="geometry" />
        </mxCell>
        <mxCell id="xTaR6zK0MpJ8cmc5XaGn-15" value="&lt;div&gt;ZOOKEEPER&lt;/div&gt;" style="rounded=0;whiteSpace=wrap;html=1;strokeColor=none;fontFamily=Helvetica;fontSize=20;fontColor=#ff8080;fillColor=none;gradientColor=none;" parent="1" vertex="1">
          <mxGeometry x="313" y="788" width="147" height="60" as="geometry" />
        </mxCell>
      </root>
    </mxGraphModel>
  </diagram>
</mxfile>
